# xmcd CD database file
#
# Track frame offsets:
#	150
#	6289
#	19119
#	37119
#	59195
#	78791
#	98431
#	109074
#	127767
#	146355
#	177851
#	198341
#
# Disc length: 2858 seconds
#
# Revision: 1
# Processed by: cddbd v1.5.2PL0 Copyright (c) Steve Scherf et al.
# Submitted via: CD2WAV32(JP) R3.22
#
DISCID=940b280c
DTITLE=ぬとぬとパラダイス - 核弾頭PLANETS
DYEAR=2006
DGENRE=JPop
TTITLE0=Dashes The Past
TTITLE1=スギーナ - 高く、遠く
TTITLE2=ルイン - ほんとはね。
TTITLE3=コツキミヤ - Dulled Sphere
TTITLE4=梨本悠里 小鳥遊マコ - In The Darkness
TTITLE5=コツキミヤ 佳織みちる - Sweet Blue
TTITLE6=小鳥遊マコ - 幸せの魔法
TTITLE7=コツキミヤ - 核弾頭Planets
TTITLE8=留桜良姫 - 恋のトレンド押し目買い
TTITLE9=スギーナ - Zeppet
TTITLE10=ルイン - こぼれおちた砂粒
TTITLE11=マスクド矢野っち - 朝鮮大戦争
EXTD=
EXTT0=曲:ゾイド丸山
EXTT1=詞曲:ゾイド丸山
EXTT2=曲:ゾイド丸山 詞:なお 「CookDoDo」OP
EXTT3=曲:ゾイド松山 詞:コツキミヤ
EXTT4=詞曲:ゾイド丸山
EXTT5=曲:ゾイド丸山 詞:コツキミヤ
EXTT6=曲:ゾイド丸山 詞:なお 「CookDoDo」ED
EXTT7=詞曲:ゾイド丸山
EXTT8=詞曲:ゾイド丸山
EXTT9=詞曲:ゾイド丸山
EXTT10=詞曲:ゾイド丸山
EXTT11=詞曲:マスクド丸山
PLAYORDER=
